<?xml version="1.0" standalone="no"?>
<!DOCTYPE svg PUBLIC "-//W3C//DTD SVG 20010904//EN"
 "http://www.w3.org/TR/2001/REC-SVG-20010904/DTD/svg10.dtd">
<svg version="1.0" xmlns="http://www.w3.org/2000/svg"
 width="500.000000pt" height="500.000000pt" viewBox="0 0 500.000000 500.000000"
 preserveAspectRatio="xMidYMid meet">
<metadata>
Created by potrace 1.14, written by Peter Selinger 2001-2017
</metadata>
<g transform="translate(0.000000,500.000000) scale(0.100000,-0.100000)"
fill="#000000" stroke="none">
<path d="M1440 4970 c0 -28 2 -30 40 -30 37 0 40 -2 40 -29 0 -20 6 -30 20
-34 11 -3 20 -12 20 -21 0 -10 9 -16 25 -16 23 0 25 -4 25 -40 l0 -40 45 0 45
0 0 -40 c0 -37 2 -40 28 -40 32 0 112 -74 112 -103 0 -9 7 -17 15 -17 9 0 19
-10 24 -22 10 -26 37 -52 64 -61 9 -4 17 -13 17 -22 0 -8 9 -15 20 -15 13 0
20 -7 20 -19 0 -10 9 -21 20 -24 11 -3 20 -12 20 -21 0 -9 5 -16 10 -16 6 0
10 -6 10 -14 0 -8 14 -19 30 -25 17 -5 30 -16 30 -24 0 -8 9 -22 20 -32 18
-16 20 -16 20 -2 0 10 7 17 15 17 11 0 15 -11 15 -40 0 -36 3 -40 25 -40 14 0
25 -5 25 -11 0 -14 55 -69 69 -69 6 0 11 -8 11 -19 0 -10 9 -21 20 -24 11 -3
20 -12 20 -21 0 -9 8 -16 20 -16 13 0 20 -7 20 -19 0 -10 9 -21 20 -24 11 -3
20 -12 20 -21 0 -9 8 -16 20 -16 12 0 20 -7 20 -17 0 -22 42 -63 64 -63 9 0
16 -8 16 -19 0 -10 9 -21 20 -24 11 -3 20 -12 20 -21 0 -9 5 -16 10 -16 6 0
10 -7 10 -15 0 -8 5 -15 10 -15 6 0 10 7 10 15 0 8 5 15 10 15 6 0 10 -18 10
-40 0 -38 2 -40 30 -40 23 0 30 -5 30 -19 0 -10 9 -21 20 -24 11 -3 20 -12 20
-21 0 -11 9 -16 30 -16 28 0 30 -2 30 -40 0 -38 2 -40 30 -40 23 0 30 -5 30
-19 0 -10 9 -21 20 -24 11 -3 20 -12 20 -21 0 -11 9 -16 30 -16 28 0 30 -2 30
-40 0 -33 3 -40 20 -40 17 0 20 -7 20 -40 0 -22 5 -40 10 -40 6 0 10 9 10 20
0 12 7 20 16 20 9 0 18 -9 21 -20 4 -14 14 -20 34 -20 28 0 29 -2 29 -44 0
-40 2 -44 30 -49 21 -5 30 -12 30 -27 0 -23 -4 -24 -32 -9 -17 9 -18 13 -7 21
11 8 10 9 -3 5 -9 -3 -18 -1 -21 6 -4 13 -194 12 -254 -1 -21 -5 -99 -10 -173
-11 -110 -1 -137 -5 -147 -18 -9 -11 -36 -17 -103 -21 -82 -4 -93 -7 -107 -28
-9 -14 -25 -24 -39 -24 -16 0 -28 -8 -36 -25 l-11 -26 -22 43 c-12 24 -26 43
-31 43 -5 -1 -82 -4 -172 -9 l-164 -8 6 -24 c6 -22 3 -24 -31 -24 -34 0 -111
-21 -136 -37 -6 -3 -35 -7 -66 -8 -31 -2 -77 -6 -102 -10 l-46 -7 -7 34 c-3
18 -16 76 -28 129 -22 95 -23 97 -58 109 -19 6 -83 14 -141 17 -174 9 -321
-35 -482 -144 -171 -116 -262 -298 -236 -477 24 -173 116 -298 278 -374 68
-33 83 -36 186 -40 120 -5 228 15 316 57 23 12 45 19 47 16 3 -3 8 -22 11 -42
5 -30 11 -38 26 -36 11 1 82 9 157 19 124 16 137 19 140 38 2 16 12 22 36 24
38 4 38 -1 14 173 -11 80 -15 136 -9 152 l8 25 55 -24 c30 -13 59 -24 64 -24
6 0 10 16 10 36 0 31 3 35 18 29 47 -20 51 -18 54 20 3 36 4 34 60 -68 l56
-105 -58 -154 c-32 -84 -67 -177 -79 -206 -32 -79 -30 -83 32 -77 28 2 105 7
170 11 112 6 119 7 127 29 6 15 19 25 36 27 24 3 31 14 71 118 122 319 117
307 124 280 4 -14 7 -70 8 -126 1 -55 4 -142 7 -192 l7 -92 158 0 159 0 0 25
c0 22 4 25 35 25 l35 0 0 109 0 108 60 12 c33 7 63 13 67 13 5 1 16 9 25 17
28 26 78 53 78 42 0 -22 2 -26 16 -43 9 -9 17 -25 18 -35 2 -10 7 -18 12 -18
16 0 64 -42 56 -49 -3 -4 1 -4 11 0 10 3 17 1 17 -5 0 -6 3 -10 8 -9 4 1 31
-4 60 -10 65 -15 155 -15 204 -2 28 8 44 8 60 -1 22 -12 22 -11 8 6 -14 17
-13 18 3 12 16 -6 22 3 18 28 -1 6 18 -10 42 -35 25 -25 43 -48 40 -53 -2 -4
-1 -6 4 -5 14 3 57 -13 76 -30 9 -8 17 -12 17 -9 0 3 15 1 33 -5 56 -17 159
-38 166 -34 4 3 27 -1 51 -8 24 -7 38 -15 31 -17 -8 -3 -4 -9 12 -16 22 -10
24 -10 20 8 -3 12 -20 23 -44 29 -45 12 -53 25 -10 17 15 -3 33 -1 39 5 8 8
13 7 18 -5 9 -24 34 -21 34 4 0 13 -4 18 -12 13 -25 -16 4 16 35 38 18 12 26
15 20 7 -10 -12 -10 -18 0 -28 9 -10 9 -12 -3 -9 -11 2 -16 -8 -18 -39 -2 -24
1 -43 6 -43 5 0 12 -9 15 -20 3 -11 12 -20 21 -20 9 0 16 -8 16 -20 0 -17 7
-20 41 -20 28 0 39 -4 36 -12 -2 -9 -22 -12 -57 -11 -30 1 -48 -2 -41 -6 26
-16 -257 -19 -1967 -21 -969 0 -1769 -3 -1777 -7 -13 -4 -15 -47 -15 -273 0
-148 4 -271 9 -274 5 -3 914 -6 2020 -6 1569 0 2011 -3 2011 -12 0 -7 7 -2 16
10 8 12 19 20 24 17 5 -3 12 -1 15 5 4 6 1 9 -7 8 -19 -4 -12 173 8 188 19 15
18 31 -3 43 -17 10 -16 10 2 11 11 0 16 4 10 8 -5 4 -11 23 -13 42 -2 19 1 30
5 24 4 -6 16 -13 26 -17 9 -3 17 -13 17 -22 0 -8 5 -15 10 -15 6 0 10 -18 10
-40 l0 -40 40 0 40 0 0 -40 c0 -22 5 -40 10 -40 6 0 10 18 10 40 0 22 5 40 10
40 6 0 10 -18 10 -40 0 -38 2 -40 30 -40 28 0 30 -2 30 -40 l0 -40 40 0 40 0
0 -40 c0 -33 4 -40 19 -40 10 0 21 -9 24 -20 3 -11 12 -20 21 -20 9 0 16 -4
16 -10 0 -5 9 -10 20 -10 20 0 20 7 20 1790 l0 1790 -1780 0 -1780 0 0 -30z
m815 -600 c3 -5 1 -10 -4 -10 -6 0 -11 5 -11 10 0 6 2 10 4 10 3 0 8 -4 11
-10z m480 -480 c3 -5 1 -10 -4 -10 -6 0 -11 5 -11 10 0 6 2 10 4 10 3 0 8 -4
11 -10z m682 -606 c-3 -3 -12 -4 -19 -1 -8 3 -5 6 6 6 11 1 17 -2 13 -5z m-46
-27 c-10 -9 -11 -8 -5 6 3 10 9 15 12 12 3 -3 0 -11 -7 -18z m-2004 -26 c13
-6 25 -34 36 -83 10 -40 17 -78 17 -84 0 -7 -19 -7 -62 2 -247 52 -458 -65
-458 -254 0 -54 35 -135 71 -169 92 -84 282 -83 411 2 43 29 44 27 54 -79 l7
-76 -64 -30 c-149 -70 -330 -79 -453 -22 -80 37 -143 95 -180 163 -176 322 97
662 516 644 48 -2 95 -8 105 -14z m1948 -1 c-7 -11 23 -9 43 3 20 13 14 2 -17
-27 -21 -20 -31 -24 -36 -15 -5 7 -4 10 3 5 6 -3 13 -2 17 4 6 9 -8 15 -29 11
-5 -1 -4 5 4 13 14 18 25 22 15 6z m-181 -30 c33 -17 63 -26 73 -23 12 5 15 2
10 -10 -3 -9 -1 -19 5 -23 7 -4 8 -3 4 4 -4 7 -3 12 2 12 5 0 10 -11 10 -25
l0 -25 -43 34 c-38 31 -97 66 -135 79 -12 4 -12 6 1 6 10 1 42 -12 73 -29z
m383 -2 c-3 -13 -9 -53 -12 -89 l-7 -66 73 -7 c126 -12 122 -10 116 -73 -3
-31 -7 -56 -9 -58 -2 -1 -46 4 -98 10 -52 7 -96 12 -97 11 0 0 -8 -56 -17
-123 -22 -175 -9 -199 112 -191 l64 4 -6 -55 c-4 -30 -12 -58 -18 -62 -23 -15
-124 -20 -172 -9 -93 21 -149 68 -162 138 -6 32 8 219 23 293 5 25 2 27 -36
34 -23 4 -41 10 -41 15 0 15 35 50 150 149 118 103 146 119 137 79z m-235 -25
c-6 -2 -10 -8 -7 -13 3 -4 -2 -13 -9 -19 -12 -10 -14 -9 -12 6 2 10 -2 21 -8
25 -6 4 3 7 19 7 17 0 24 -3 17 -6z m-218 -37 c19 -8 52 -30 73 -50 l40 -35
-12 -76 -12 -75 39 -6 39 -7 -6 -56 c-4 -31 -19 -81 -33 -111 -58 -118 -208
-168 -345 -114 -17 6 -18 -2 -16 -142 l2 -149 -86 -3 -87 -3 0 68 c0 37 -5
195 -11 351 -11 280 -11 284 11 341 23 63 36 71 116 71 30 0 34 -3 34 -27 0
-24 1 -25 18 -10 49 45 168 61 236 33z m-474 -43 c0 -4 -70 -191 -156 -414
l-156 -406 -85 -7 c-47 -4 -87 -5 -90 -2 -3 3 24 82 61 177 36 94 66 175 66
180 0 5 -52 104 -115 221 -63 116 -115 215 -115 220 0 4 20 8 44 8 24 0 63 3
87 6 l44 6 67 -138 66 -137 14 34 c8 19 32 82 53 141 43 120 35 114 153 117
34 0 62 -2 62 -6z m-691 -112 c19 -10 22 -19 18 -44 -3 -18 -9 -52 -12 -75 -7
-41 -9 -44 -34 -38 -82 20 -96 19 -128 -8 -18 -15 -39 -50 -53 -85 -22 -59
-22 -61 -6 -177 9 -65 13 -121 9 -125 -5 -4 -43 -11 -85 -16 l-78 -9 -5 30
c-12 79 -65 484 -65 502 0 6 19 14 43 17 23 3 61 9 84 13 l41 6 7 -58 c10 -90
13 -92 44 -28 54 113 127 144 220 95z m-613 -37 c19 -5 22 -18 34 -119 7 -62
9 -118 6 -124 -4 -5 -31 -19 -62 -30 -106 -40 -220 -18 -262 50 -60 99 -29
196 73 225 48 13 160 12 211 -2z m2868 -12 c66 -23 150 -100 172 -157 22 -60
16 -184 -13 -240 -49 -95 -140 -147 -257 -148 -99 0 -175 25 -236 80 -73 65
-93 115 -88 216 4 91 22 140 71 188 83 83 219 107 351 61z m-596 -177 c-4 -18
0 -26 13 -30 23 -8 24 -19 2 -36 -12 -10 -15 -10 -9 -1 4 7 0 20 -10 29 -16
17 -17 16 -10 -10 4 -19 3 -26 -4 -22 -13 8 -13 42 1 50 6 4 8 13 5 20 -2 7
-2 16 1 19 12 12 15 6 11 -19z m34 16 c7 11 8 9 6 -5 -4 -28 -24 -30 -25 -4 0
13 1 17 4 9 5 -11 7 -11 15 0z m644 -477 c2 -12 -1 -13 -12 -3 -7 6 -11 16 -8
21 7 11 17 3 20 -18z m307 -201 c3 -5 1 -17 -4 -28 -7 -19 -8 -19 -8 2 -1 12
-7 24 -13 26 -8 3 -7 6 4 6 9 1 19 -2 21 -6z m-3553 -218 c0 -20 -5 -25 -25
-25 -24 0 -24 -1 -27 -97 l-3 -98 -27 -3 -28 -3 0 100 c0 100 0 101 -24 101
-28 0 -40 14 -32 35 4 12 25 15 86 15 79 0 80 0 80 -25z m164 4 c30 -24 34
-63 10 -91 -16 -16 -15 -22 5 -74 11 -31 21 -58 21 -60 0 -2 -13 -4 -28 -4
-25 0 -30 6 -43 47 -21 66 -39 68 -39 4 0 -50 -1 -51 -30 -51 l-30 0 0 125 0
125 54 0 c39 0 60 -6 80 -21z m175 -16 c23 -88 51 -202 51 -207 0 -3 -11 -6
-25 -6 -18 0 -26 7 -31 25 -5 19 -13 25 -34 25 -21 0 -29 -6 -34 -25 -5 -18
-13 -25 -31 -25 -14 0 -25 3 -25 6 0 3 9 42 21 87 42 168 37 157 69 157 25 0
31 -5 39 -37z m195 25 c55 -24 77 -99 50 -166 -20 -51 -55 -72 -119 -72 l-45
0 0 125 0 125 45 0 c24 0 55 -5 69 -12z m156 -114 l0 -125 -27 3 -28 3 -3 109
c-1 61 0 116 2 123 3 7 17 13 31 13 l25 0 0 -126z m134 59 l35 -68 1 68 c0 65
1 67 25 67 l25 0 0 -125 c0 -123 0 -125 -23 -125 -18 0 -30 14 -59 73 l-37 72
0 -72 c-1 -71 -2 -73 -26 -73 l-25 0 0 125 0 125 25 0 c20 0 31 -12 59 -67z
m274 61 c15 -4 22 -14 22 -29 0 -21 -3 -23 -42 -18 -52 7 -68 -11 -68 -78 0
-50 16 -73 47 -67 23 4 30 38 9 38 -21 0 -21 40 -1 41 63 5 60 7 63 -52 3 -51
1 -56 -23 -67 -47 -22 -84 -15 -121 22 -29 29 -34 41 -34 80 0 100 60 153 148
130z m330 -25 c3 -24 1 -25 -29 -21 -42 6 -59 -17 -59 -79 0 -57 17 -74 65
-66 30 5 35 3 35 -13 0 -21 -28 -40 -59 -40 -81 0 -128 106 -85 195 18 39 47
55 94 52 30 -2 35 -6 38 -28z m184 -79 c35 -130 35 -140 4 -140 -17 0 -26 7
-30 25 -5 20 -13 25 -35 25 -23 0 -30 -5 -33 -22 -2 -17 -11 -24 -32 -26 -21
-3 -27 0 -24 10 3 7 18 64 34 126 l29 113 29 -3 c28 -3 30 -7 58 -108z m192
89 c30 -24 34 -63 10 -90 -15 -16 -14 -22 5 -74 12 -31 21 -58 21 -60 0 -3
-13 -5 -28 -5 -25 0 -30 6 -43 47 -21 66 -39 68 -39 4 0 -50 -1 -51 -30 -51
l-30 0 0 125 0 125 54 0 c39 0 60 -6 80 -21z m187 5 c73 -37 77 -171 6 -214
-20 -13 -50 -20 -79 -20 l-48 0 0 125 0 125 45 0 c26 0 60 -7 76 -16z m360 6
c11 -7 19 -21 19 -37 0 -21 -3 -24 -12 -15 -16 16 -73 15 -87 -2 -18 -21 -24
-77 -12 -108 13 -34 61 -41 61 -9 0 10 -7 21 -15 25 -8 3 -15 12 -15 21 0 11
11 15 45 15 l45 0 0 -49 c0 -58 -13 -72 -73 -78 -33 -4 -48 0 -69 17 -64 50
-54 177 17 218 25 14 70 15 96 2z m197 -109 c18 -65 32 -122 32 -125 0 -4 -12
-6 -27 -4 -20 2 -29 9 -31 26 -5 33 -57 31 -66 -3 -5 -18 -13 -25 -31 -25 -14
0 -25 6 -25 13 0 10 40 168 56 220 3 11 15 17 33 17 27 0 29 -3 59 -119z m137
68 c30 -55 29 -55 66 14 14 27 26 37 44 37 l25 0 0 -125 0 -125 -25 0 c-24 0
-25 2 -25 78 l-1 77 -25 -42 c-14 -24 -29 -43 -33 -43 -4 0 -17 19 -28 43
l-22 42 0 -77 c-1 -76 -2 -78 -26 -78 l-25 0 0 125 c0 124 0 125 23 125 18 0
30 -12 52 -51z m325 26 c0 -23 -4 -25 -45 -25 -41 0 -45 -2 -45 -25 0 -22 4
-25 40 -25 33 0 40 -3 40 -20 0 -14 -7 -20 -24 -20 -40 0 -56 -11 -56 -36 0
-22 4 -24 45 -24 41 0 45 -2 45 -25 0 -24 -2 -25 -70 -25 l-70 0 0 125 0 125
70 0 c68 0 70 -1 70 -25z m558 -127 c-2 -6 -10 -14 -16 -16 -7 -2 -10 2 -6 12
7 18 28 22 22 4z"/>
<path d="M2865 3014 c-50 -26 -52 -30 -47 -162 l4 -123 29 -14 c34 -18 95 -19
129 -2 13 7 35 28 47 46 29 43 32 144 6 198 -31 65 -104 90 -168 57z m32 -166
c-3 -8 -6 -5 -6 6 -1 11 2 17 5 13 3 -3 4 -12 1 -19z m13 -38 c0 -5 -2 -10 -4
-10 -3 0 -8 5 -11 10 -3 6 -1 10 4 10 6 0 11 -4 11 -10z"/>
<path d="M3982 2834 c-46 -32 -67 -91 -67 -191 0 -87 2 -94 27 -119 19 -20 39
-28 77 -32 45 -4 53 -2 80 25 40 41 64 127 59 211 -4 58 -8 68 -36 93 -37 34
-102 40 -140 13z"/>
<path d="M1080 1825 c0 -18 5 -25 20 -25 15 0 20 7 20 25 0 18 -5 25 -20 25
-15 0 -20 -7 -20 -25z"/>
<path d="M1280 1787 c0 -15 0 -30 0 -34 0 -5 6 -8 13 -8 7 0 11 10 9 25 -5 37
-22 50 -22 17z"/>
<path d="M1460 1776 c0 -41 3 -77 8 -79 20 -12 51 14 58 48 10 56 -6 99 -39
103 l-27 3 0 -75z"/>
<path d="M2537 1807 c-12 -32 -8 -67 8 -67 16 0 18 18 6 60 -6 22 -8 23 -14 7z"/>
<path d="M2720 1825 c0 -18 5 -25 20 -25 15 0 20 7 20 25 0 18 -5 25 -20 25
-15 0 -20 -7 -20 -25z"/>
<path d="M2918 1843 c-3 -7 -2 -109 1 -140 1 -15 31 -6 49 15 15 19 16 86 2
113 -10 18 -46 27 -52 12z"/>
<path d="M3470 1805 c0 -11 -3 -31 -7 -44 -5 -19 -2 -22 13 -19 20 4 21 37 3
68 -7 12 -8 11 -9 -5z"/>
<path d="M3646 2372 c-2 -4 4 -8 14 -8 10 0 16 4 14 8 -3 4 -9 8 -14 8 -5 0
-11 -4 -14 -8z"/>
<path d="M4165 2290 c-3 -6 1 -7 9 -4 18 7 21 14 7 14 -6 0 -13 -4 -16 -10z"/>
<path d="M4018 2228 c5 -5 16 -8 23 -6 8 3 3 7 -10 11 -17 4 -21 3 -13 -5z"/>
<path d="M4145 2200 c-3 -5 -1 -10 4 -10 6 0 11 5 11 10 0 6 -2 10 -4 10 -3 0
-8 -4 -11 -10z"/>
<path d="M4080 2170 c0 -5 5 -10 10 -10 6 0 10 5 10 10 0 6 -4 10 -10 10 -5 0
-10 -4 -10 -10z"/>
<path d="M4127 2133 c3 -7 11 -13 19 -13 8 0 14 6 14 13 0 7 -8 13 -19 13 -11
0 -17 -5 -14 -13z"/>
<path d="M4600 1666 c0 -8 5 -18 10 -21 6 -3 10 1 10 9 0 8 -4 18 -10 21 -5 3
-10 -1 -10 -9z"/>
</g>
</svg>
